<svg width="16" height="15" viewBox="0 0 16 15" fill="none" xmlns="http://www.w3.org/2000/svg">
<path d="M15.3333 7.5L13.7067 5.64L13.9333 3.18L11.5267 2.63333L10.2667 0.5L8 1.47333L5.73334 0.5L4.47333 2.62667L2.06667 3.16667L2.29333 5.63333L0.666668 7.5L2.29333 9.36L2.06667 11.8267L4.47333 12.3733L5.73334 14.5L8 13.52L10.2667 14.4933L11.5267 12.3667L13.9333 11.82L13.7067 9.36L15.3333 7.5ZM6.25333 10.1733L4.66667 8.57333C4.60487 8.51166 4.55583 8.4384 4.52238 8.35775C4.48893 8.2771 4.47171 8.19065 4.47171 8.10333C4.47171 8.01602 4.48893 7.92957 4.52238 7.84892C4.55583 7.76827 4.60487 7.69501 4.66667 7.63333L4.71334 7.58667C4.97333 7.32667 5.4 7.32667 5.66 7.58667L6.73334 8.66667L10.1667 5.22667C10.4267 4.96667 10.8533 4.96667 11.1133 5.22667L11.16 5.27333C11.42 5.53333 11.42 5.95333 11.16 6.21333L7.21333 10.1733C6.94 10.4333 6.52 10.4333 6.25333 10.1733Z" fill="#184EC9"/>
</svg>
