<svg width="16" height="16" viewBox="0 0 16 16" fill="none" xmlns="http://www.w3.org/2000/svg">
<path d="M16 12C16 12.4715 15.8127 12.9237 15.4793 13.2571C15.1459 13.5905 14.6937 13.7778 14.2222 13.7778H1.77778C1.30628 13.7778 0.854097 13.5905 0.520699 13.2571C0.187301 12.9237 0 12.4715 0 12V4.00001C0 3.52851 0.187301 3.07633 0.520699 2.74293C0.854097 2.40953 1.30628 2.22223 1.77778 2.22223H14.2222C14.6937 2.22223 15.1459 2.40953 15.4793 2.74293C15.8127 3.07633 16 3.52851 16 4.00001V12Z" fill="#DE2910"/>
<path d="M4.94933 3.98977L5.27644 4.14799L5.53822 3.89644L5.48888 4.25644L5.80888 4.42799L5.45155 4.49199L5.38755 4.84933L5.21599 4.52933L4.85599 4.57866L5.10755 4.31688L4.94933 3.98977ZM7.02266 5.29688L6.86444 5.62355L7.11599 5.88577L6.75644 5.83599L6.58488 6.15644L6.52088 5.79866L6.1631 5.73466L6.48355 5.56311L6.43377 5.20355L6.69599 5.45511L7.02266 5.29688ZM6.59733 6.97644L6.71644 7.31955L7.07955 7.32711L6.79022 7.54622L6.89555 7.89422L6.59733 7.68666L6.2991 7.89422L6.40399 7.54622L6.11466 7.32711L6.47777 7.31955L6.59733 6.97644ZM4.94933 8.43422L5.27644 8.59244L5.53822 8.34088L5.48888 8.70088L5.80888 8.87244L5.45155 8.93644L5.38755 9.29377L5.21599 8.97377L4.85599 9.02311L5.10755 8.76133L4.94933 8.43422ZM3.1111 4.86711L3.52399 6.05422L4.77999 6.07999L3.77866 6.8391L4.14266 8.04177L3.1111 7.32399L2.07955 8.04177L2.44355 6.8391L1.44221 6.07999L2.69822 6.05422L3.1111 4.86711Z" fill="#FFDE02"/>
</svg>
