<svg width="12" height="12" viewBox="0 0 12 12" fill="none" xmlns="http://www.w3.org/2000/svg">
<g clip-path="url(#clip0_1_3139)">
<path d="M10.6667 1.66667H1.33333C0.979711 1.66667 0.640573 1.80715 0.390524 2.0572C0.140476 2.30724 0 2.64638 0 3.00001L0 9C0 9.35363 0.140476 9.69277 0.390524 9.94281C0.640573 10.1929 0.979711 10.3333 1.33333 10.3333H10.6667C11.0203 10.3333 11.3594 10.1929 11.6095 9.94281C11.8595 9.69277 12 9.35363 12 9V3.00001C12 2.64638 11.8595 2.30724 11.6095 2.0572C11.3594 1.80715 11.0203 1.66667 10.6667 1.66667Z" fill="#EEEEEE"/>
<path d="M7 1.66667H5V5H0V7H5V10.3333H7V7H12V5H7V1.66667Z" fill="#CE1124"/>
</g>
<defs>
<clipPath id="clip0_1_3139">
<rect width="12" height="12" fill="white"/>
</clipPath>
</defs>
</svg>
