<svg width="16" height="17" viewBox="0 0 16 17" fill="none" xmlns="http://www.w3.org/2000/svg">
<path d="M8 11.8333C8.18889 11.8333 8.34733 11.7693 8.47533 11.6413C8.60289 11.5138 8.66667 11.3556 8.66667 11.1667C8.66667 10.9778 8.60289 10.8193 8.47533 10.6913C8.34733 10.5638 8.18889 10.5 8 10.5C7.81111 10.5 7.65289 10.5638 7.52533 10.6913C7.39733 10.8193 7.33333 10.9778 7.33333 11.1667C7.33333 11.3556 7.39733 11.5138 7.52533 11.6413C7.65289 11.7693 7.81111 11.8333 8 11.8333ZM8 9.16667C8.18889 9.16667 8.34733 9.10267 8.47533 8.97467C8.60289 8.84712 8.66667 8.68889 8.66667 8.5V5.83334C8.66667 5.64445 8.60289 5.486 8.47533 5.35801C8.34733 5.23045 8.18889 5.16667 8 5.16667C7.81111 5.16667 7.65289 5.23045 7.52533 5.35801C7.39733 5.486 7.33333 5.64445 7.33333 5.83334V8.5C7.33333 8.68889 7.39733 8.84712 7.52533 8.97467C7.65289 9.10267 7.81111 9.16667 8 9.16667ZM3.33333 14.5C2.96667 14.5 2.65267 14.3696 2.39133 14.1087C2.13044 13.8473 2 13.5333 2 13.1667V3.83334C2 3.46667 2.13044 3.15267 2.39133 2.89134C2.65267 2.63045 2.96667 2.50001 3.33333 2.50001H6.13333C6.27778 2.10001 6.51956 1.77778 6.85867 1.53334C7.19733 1.28889 7.57778 1.16667 8 1.16667C8.42222 1.16667 8.80289 1.28889 9.142 1.53334C9.48067 1.77778 9.72222 2.10001 9.86667 2.50001H12.6667C13.0333 2.50001 13.3473 2.63045 13.6087 2.89134C13.8696 3.15267 14 3.46667 14 3.83334V13.1667C14 13.5333 13.8696 13.8473 13.6087 14.1087C13.3473 14.3696 13.0333 14.5 12.6667 14.5H3.33333ZM8 3.33334C8.14444 3.33334 8.264 3.28601 8.35867 3.19134C8.45289 3.09712 8.5 2.97778 8.5 2.83334C8.5 2.68889 8.45289 2.56934 8.35867 2.47467C8.264 2.38045 8.14444 2.33334 8 2.33334C7.85556 2.33334 7.73622 2.38045 7.642 2.47467C7.54733 2.56934 7.5 2.68889 7.5 2.83334C7.5 2.97778 7.54733 3.09712 7.642 3.19134C7.73622 3.28601 7.85556 3.33334 8 3.33334Z" fill="#008060"/>
</svg>
