<svg width="18" height="16" viewBox="0 0 18 16" fill="none" xmlns="http://www.w3.org/2000/svg">
<path d="M12.75 0.5C15.2817 0.5 17.3333 2.58333 17.3333 5.5C17.3333 11.3333 11.0833 14.6667 9 15.9167C6.91667 14.6667 0.666668 11.3333 0.666668 5.5C0.666668 2.58333 2.75 0.5 5.25 0.5C6.8 0.5 8.16667 1.33333 9 2.16667C9.83333 1.33333 11.2 0.5 12.75 0.5ZM9.77833 13.5033C10.476 13.0681 11.1492 12.5949 11.795 12.0858C14.2792 10.1108 15.6667 7.9525 15.6667 5.5C15.6667 3.53333 14.3858 2.16667 12.75 2.16667C11.8533 2.16667 10.8833 2.64167 10.1783 3.345L9 4.52333L7.82167 3.345C7.11667 2.64167 6.14667 2.16667 5.25 2.16667C3.63333 2.16667 2.33333 3.54667 2.33333 5.5C2.33333 7.95333 3.72167 10.1108 6.20417 12.0858C6.825 12.5792 7.4875 13.04 8.22167 13.5025C8.47083 13.66 8.7175 13.8108 9 13.9792C9.2825 13.8108 9.52917 13.66 9.77833 13.5033Z" fill="black"/>
</svg>
